<?xml version="1.0" encoding="UTF-8"?>
<svg id="circ12" xmlns="http://www.w3.org/2000/svg" viewBox="0 0 100 100">
  <defs>
    <style>
      .cls-1 {
        fill: #fff;
        stroke: #231f20;
        stroke-miterlimit: 10;
      }
    </style>
  </defs>
  <g id="Layer_79" data-name="Layer 79">
    <path class="cls-1" d="M50,6.67V0C22.39,0,0,22.39,0,50h6.67C6.67,26.07,26.07,6.67,50,6.67Z"/>
  </g>
  <g id="Layer_80" data-name="Layer 80">
    <path class="cls-1" d="M50,13.34v-6.67C26.07,6.67,6.67,26.07,6.67,50h6.67c0-20.25,16.41-36.66,36.66-36.66Z"/>
  </g>
  <g id="Layer_81" data-name="Layer 81">
    <path class="cls-1" d="M50,20v-6.66c-20.25,0-36.66,16.41-36.66,36.66h6.66c0-16.57,13.43-30,30-30Z"/>
  </g>
  <g id="Layer_82" data-name="Layer 82">
    <path class="cls-1" d="M50,26.67v-6.67c-16.57,0-30,13.43-30,30h6.67c0-12.88,10.45-23.33,23.33-23.33Z"/>
  </g>
  <g id="Layer_83" data-name="Layer 83">
    <path class="cls-1" d="M50,33.34v-6.67c-12.88,0-23.33,10.45-23.33,23.33h6.67c0-9.2,7.46-16.66,16.66-16.66Z"/>
  </g>
  <g id="Layer_84" data-name="Layer 84">
    <path class="cls-1" d="M50,40v-6.66c-9.2,0-16.66,7.46-16.66,16.66h6.66c0-5.52,4.48-10,10-10Z"/>
  </g>
  <g id="Layer_85" data-name="Layer 85">
    <circle class="cls-1" cx="50" cy="50" r="10"/>
  </g>
</svg>