<svg width="312" height="443" viewBox="0 0 312 443" fill="none" xmlns="http://www.w3.org/2000/svg">
<path d="M0.5 441.618V0.5H226.039C274.42 0.5 311.417 37.497 310.705 85.8777V149.911C310.705 169.832 304.302 189.042 293.63 203.272C305.014 218.213 310.705 236.712 310.705 256.633V356.24C311.417 404.621 274.42 441.618 226.039 441.618H0.5ZM64.5332 377.585H225.328C237.423 377.585 246.672 368.335 246.672 356.24V256.633C246.672 244.538 237.423 235.289 225.328 235.289H64.5332V377.585ZM64.5332 171.255H225.328C237.423 171.255 246.672 162.006 246.672 149.911V85.8777C246.672 73.7825 237.423 64.5332 225.328 64.5332H64.5332V171.255Z" stroke="black"/>
</svg>
