<svg width="312" height="443" viewBox="0 0 312 443" fill="none" xmlns="http://www.w3.org/2000/svg">
<path d="M85.1763 0.5H282.256V64.5332H85.8877C73.7926 64.5332 64.5433 73.7825 64.5433 85.8777V356.24C64.5433 368.335 73.7926 377.585 85.8877 377.585H225.338C237.433 377.585 246.682 368.335 246.682 356.24V256.633C246.682 244.538 237.433 235.289 225.338 235.289H122.173V171.255H226.049C274.43 171.255 311.427 208.252 310.716 256.633V356.24C311.427 404.621 274.43 441.618 226.049 441.618H85.1763C36.7956 441.618 -0.201392 404.621 0.51009 356.24V85.8777C-0.201392 37.497 36.7956 0.5 85.1763 0.5Z" stroke="black"/>
</svg>
