<svg width="312" height="443" viewBox="0 0 312 443" fill="none" xmlns="http://www.w3.org/2000/svg">
<path d="M85.1662 441.618C36.7855 441.618 0.5 404.621 0.5 356.24V85.8777C0.5 37.497 36.7855 0.5 85.1662 0.5H226.039C274.42 0.5 311.417 37.497 310.705 85.8777V356.24C311.417 404.621 274.42 441.618 226.039 441.618H85.1662ZM225.328 377.585C237.423 377.585 246.672 368.335 246.672 356.24V85.8777C246.672 73.7825 237.423 64.5332 225.328 64.5332H85.8777C73.7825 64.5332 64.5332 73.7825 64.5332 85.8777V356.24C64.5332 368.335 73.7825 377.585 85.8777 377.585H225.328Z" stroke="black"/>
</svg>
