<svg width="312" height="522" viewBox="0 0 312 522" fill="none" xmlns="http://www.w3.org/2000/svg">
<path d="M64.5332 356.24C64.5332 368.335 73.7825 377.585 85.8777 377.585H225.328C237.423 377.585 246.672 368.335 246.672 356.24V85.8777C246.672 73.7825 237.423 64.5332 225.328 64.5332H85.8777C73.7825 64.5332 64.5332 73.7825 64.5332 85.8777V356.24ZM0.5 85.8777C0.5 37.497 36.7855 0.5 85.1662 0.5H226.039C274.42 0.5 311.417 37.497 310.705 85.8777V356.24C311.417 400.352 281.535 434.503 239.557 440.906V521.304H168.409V441.618H85.1662C36.7855 441.618 0.5 404.621 0.5 356.24V85.8777Z" stroke="black"/>
</svg>
