<svg width="312" height="443" viewBox="0 0 312 443" fill="none" xmlns="http://www.w3.org/2000/svg">
<path d="M85.8877 64.5332C73.7926 64.5332 64.5433 73.7825 64.5433 85.8777V149.911C64.5433 162.006 73.7926 171.255 85.8877 171.255H225.338C273.719 170.544 310.716 207.541 310.716 255.921V356.24C311.427 404.621 274.43 441.618 226.049 441.618H0.51009V377.585H225.338C237.433 377.585 246.682 368.335 246.682 356.24V256.633C246.682 244.538 237.433 235.289 225.338 235.289H85.1763C36.7956 235.289 -0.201392 198.292 0.51009 149.911V85.8777C-0.201392 37.497 36.7956 0.5 85.1763 0.5H289.371V64.5332H85.8877Z" stroke="black"/>
</svg>
