<svg width="198" height="198" viewBox="0 0 198 198" fill="none" xmlns="http://www.w3.org/2000/svg">
<path d="M88.4846 9.01397C92.2058 -3.00473 105.635 -3.00464 109.356 9.01414C110.339 12.1893 111.269 15.58 112.142 19.1662C115.673 33.6806 133.204 40.9419 145.964 33.1762C149.118 31.2571 152.174 29.5172 155.115 27.967C166.245 22.1001 175.74 31.5959 169.873 42.7257C168.323 45.6664 166.583 48.7224 164.664 51.8757C156.898 64.6361 164.159 82.1664 178.673 85.6981C182.26 86.5708 185.651 87.5014 188.827 88.4846C200.845 92.2059 200.845 105.635 188.827 109.356C185.651 110.339 182.26 111.269 178.674 112.142C164.159 115.673 156.898 133.204 164.664 145.964C166.583 149.118 168.323 152.174 169.873 155.115C175.74 166.245 166.245 175.74 155.115 169.873C152.174 168.323 149.118 166.583 145.964 164.664C133.204 156.898 115.673 164.159 112.142 178.674C111.269 182.26 110.339 185.651 109.356 188.826C105.635 200.845 92.2059 200.845 88.4846 188.827C87.5014 185.651 86.5708 182.26 85.6981 178.673C82.1664 164.159 64.6361 156.898 51.8757 164.664C48.7224 166.583 45.6664 168.323 42.7257 169.873C31.5959 175.74 22.1001 166.245 27.967 155.115C29.5172 152.174 31.2571 149.118 33.1762 145.964C40.9419 133.204 33.6806 115.673 19.1662 112.142C15.58 111.269 12.1893 110.339 9.01413 109.356C-3.00465 105.635 -3.00472 92.2058 9.01398 88.4846C12.1892 87.5014 15.58 86.5708 19.1664 85.6982C33.6806 82.1665 40.9419 64.6361 33.1762 51.8757C31.2572 48.7224 29.5174 45.6665 27.9673 42.7258C22.1002 31.5959 31.5959 22.1002 42.7258 27.9673C45.6665 29.5174 48.7224 31.2572 51.8757 33.1762C64.6362 40.9419 82.1665 33.6806 85.6982 19.1664C86.5708 15.58 87.5014 12.1892 88.4846 9.01397Z" fill="white"/>
</svg>
