<svg width="252" height="162" viewBox="0 0 252 162" fill="none" xmlns="http://www.w3.org/2000/svg">
<path fill-rule="evenodd" clip-rule="evenodd" d="M125.715 0C181.604 0 229.732 33.2248 251.429 81C229.732 128.775 181.604 162 125.715 162C69.8254 162 21.6962 128.775 0 81C21.6962 33.2246 69.8254 0 125.715 0ZM125.215 22C92.3539 22 65.7148 48.6391 65.7148 81.5C65.7148 114.361 92.3539 141 125.215 141C158.076 141 184.715 114.361 184.715 81.5C184.715 48.6391 158.076 22 125.215 22Z" fill="#D9D9D9"/>
<path d="M150.993 97.8008C147.371 103.529 141.944 107.888 135.569 110.189C129.195 112.489 122.235 112.602 115.789 110.507C109.344 108.413 103.779 104.231 99.9746 98.6225C96.1698 93.0139 94.3415 86.2978 94.7782 79.5346C95.215 72.7713 97.8919 66.3461 102.386 61.2735C106.881 56.2008 112.937 52.7696 119.598 51.5216C126.26 50.2736 133.147 51.2798 139.173 54.3815C145.199 57.4831 150.02 62.5035 152.876 68.65L125.215 81.5L150.993 97.8008Z" fill="#D9D9D9"/>
</svg>
